<?xml version="1.0" encoding="utf-8"?>
<!-- Generator: Adobe Illustrator 24.1.0, SVG Export Plug-In . SVG Version: 6.00 Build 0)  -->
<svg version="1.1" id="Layer_1" xmlns="http://www.w3.org/2000/svg" xmlns:xlink="http://www.w3.org/1999/xlink" x="0px" y="0px"
	 viewBox="0 0 3000 3000" style="enable-background:new 0 0 3000 3000;" xml:space="preserve">
<style type="text/css">
	.st0{fill:#FF784F;stroke:#1D1D1B;stroke-width:1.3038;stroke-miterlimit:10;}
	.st1{fill:#FFFFFF;}
	.st2{fill:none;}
	.st3{opacity:0.5;fill:#FFFFFF;}
</style>
<rect class="st0" width="3000" height="3000"/>
<g>
	<path class="st1" d="M364.7,798.7c-26,0-49-4-68.9-12c-19.9-8-36-19.5-48.4-34.6c-12.3-15.1-20.3-33.4-23.8-54.9l72.7-11.2
		c2.4,10.6,6.8,19.8,13.5,27.4c6.6,7.6,15,13.4,25.1,17.4c10.2,4,21.7,6.1,34.7,6.1c11.2,0,20.9-1.5,29-4.6
		c8.1-3.1,14.2-7.4,18.5-13.2c4.2-5.7,6.4-12.5,6.4-20.4c0-7.7-1.8-13.6-5.3-17.9c-3.5-4.2-10.7-8.3-21.6-12.3
		c-10.8-3.9-29-9.3-54.4-16c-27.2-7.1-48.6-14.7-64.2-22.9c-15.6-8.2-26.8-17.8-33.7-29c-6.9-11.1-10.4-24.8-10.4-41
		c0-19.7,5.2-37,15.5-51.9c10.4-14.9,25-26.3,43.9-34.3s41-12,66.2-12c24.6,0,46.6,3.8,65.9,11.5c19.3,7.7,34.9,18.7,46.7,33
		c11.8,14.3,19.1,30.9,21.9,49.8l-72.7,13c-1.4-9.1-4.6-16.9-9.8-23.5c-5.1-6.6-12-11.8-20.6-15.5c-8.6-3.7-18.7-5.9-30.3-6.5
		c-11-0.6-20.8,0.4-29.3,3c-8.5,2.6-15,6.4-19.7,11.5c-4.6,5.1-6.9,11.2-6.9,18.3c0,6.3,2.1,11.6,6.4,15.8
		c4.2,4.2,12.3,8.5,24.1,12.7c11.8,4.2,30.8,9.6,56.8,16.1c25.8,6.5,46.3,13.9,61.4,22.3c15.1,8.4,26,18.3,32.8,29.9
		c6.8,11.5,10.2,25.7,10.2,42.4c0,21.3-5.3,39.7-15.8,55.2c-10.5,15.5-25.7,27.4-45.5,35.6C415.4,794.6,391.9,798.7,364.7,798.7z"/>
	<path class="st1" d="M700.4,798.7c-32.1,0-60-7.2-83.5-21.7c-23.6-14.5-41.5-34.5-54-60c-12.4-25.5-18.7-54.5-18.9-86.8
		c0.2-32.7,6.7-61.8,19.4-87.2c12.7-25.4,30.9-45.3,54.7-59.7c23.8-14.4,51.5-21.6,83.2-21.6c24.1,0,45.8,4.1,65.4,12.3
		c19.5,8.2,35.8,20,48.8,35.3s22.1,33.5,27.2,54.4l-71,19.2c-5.5-17-14.6-30.3-27.4-39.9c-12.7-9.7-27.4-14.5-43.9-14.5
		c-26.8,0-47,9.3-60.6,27.8c-13.6,18.5-20.4,43.2-20.4,73.9c0,20.5,3.1,38.4,9.2,53.7c6.1,15.3,15.3,27.1,27.5,35.5
		c12.2,8.4,27,12.6,44.4,12.6c18.3,0,33.1-4.2,44.2-12.6c11.1-8.4,19.6-21,25.3-38l72.7,16.3c-9.9,32.5-27.1,57.5-51.8,75
		C766.2,790,736,798.7,700.4,798.7z"/>
	<path class="st1" d="M902,470.5h63v77.8l-7.7-10.1c4.1-10.8,9.6-20.6,16.3-29.4c6.7-8.8,14.5-15.9,23.4-21.4
		c7.7-5.3,16.3-9.5,25.7-12.6c9.5-3.1,19.3-4.9,29.4-5.6c10.2-0.7,20.1-0.2,29.7,1.3V537c-10.1-3-21.1-3.8-33.3-2.5
		c-12.1,1.3-23,4.7-32.7,10.2c-9.7,5.1-17.6,11.8-24,20c-6.3,8.2-10.9,17.4-13.9,27.6c-3,10.3-4.4,22-4.4,35.2v162.4H902V470.5z"/>
	<path class="st1" d="M1143.9,356.6h71.3V422h-71.3V356.6z M1143.9,470.5h71.3v319.4h-71.3V470.5z"/>
	<path class="st1" d="M1303.3,470.5h63v224.2h8.9v237.2h-71.9V470.5z M1457.4,798.7c-30.4,0-56.2-7.3-77.5-21.9
		c-21.3-14.6-37.4-34.6-48.2-60c-10.8-25.4-16.3-54.3-16.3-86.6c0-32.5,5.4-61.5,16.1-86.9c10.7-25.4,26.6-45.4,47.5-59.9
		c20.9-14.5,46.1-21.7,75.7-21.7s55.6,7.2,78.1,21.7s39.8,34.5,52,60c12.2,25.5,18.3,54.5,18.3,86.8c0,31.7-6,60.4-18,86.1
		c-12,25.6-29.1,45.8-51.3,60.5C1511.6,791.4,1486.2,798.7,1457.4,798.7z M1446.4,734.9c17.9,0,33-4.5,45.2-13.6
		c12.2-9.1,21.3-21.5,27.2-37.3c5.9-15.8,8.9-33.7,8.9-53.8c0-19.9-3.1-37.8-9.2-53.5c-6.1-15.8-15.4-28.2-27.9-37.4
		c-12.5-9.2-28-13.8-46.6-13.8c-17.7,0-32.4,4.3-43.9,13c-11.5,8.7-20.1,20.8-25.6,36.4c-5.5,15.6-8.3,34-8.3,55.3
		c0,21.3,2.8,39.8,8.4,55.4s14.3,27.8,26.2,36.4C1412.7,730.6,1427.9,734.9,1446.4,734.9z"/>
	<path class="st1" d="M1632.7,470.5h222.7v55.9h-222.7V470.5z M1855.4,789.9c-34.9,6.7-66.1,7.2-93.7,1.5
		c-27.6-5.7-47.2-19.3-58.8-40.8c-5.7-10.8-9.3-21.8-10.6-33c-1.4-11.1-1.9-25.9-1.5-44.2v-13.9V381.8h71v273.5v9.2
		c-0.2,12.8,0,22.8,0.7,30c0.7,7.2,2.6,13.3,5.8,18.2c6.7,10.8,17.2,17.3,31.5,19.4c14.3,2.1,32.9,1.4,55.7-1.9V789.9z"/>
	<path class="st1" d="M2053.3,798.7c-31.9,0-60.2-6.9-84.9-20.8c-24.6-13.9-43.8-33.4-57.5-58.6c-13.7-25.1-20.6-53.7-20.6-85.6
		c0-34.5,6.7-64.7,20.1-90.6c13.4-25.9,32.1-46,56-60.2c24-14.2,51.5-21.3,82.7-21.3c32.7,0,60.8,7.7,84.1,23.1
		c23.4,15.4,40.6,37.3,51.8,65.7c11.1,28.4,15.4,61.6,12.9,99.7h-70.7v-26c-0.2-23.3-3-42.2-8.3-56.8c-5.3-14.6-13.5-25.4-24.4-32.5
		c-10.9-7.1-25.1-10.6-42.4-10.6c-19.3,0-35.4,4-48.2,12c-12.8,8-22.4,19.9-28.7,35.6c-6.3,15.8-9.5,35.3-9.5,58.6
		c0,21.7,3.2,40.1,9.5,55.3c6.3,15.2,15.7,26.7,28.2,34.6c12.5,7.9,27.7,11.8,45.7,11.8c17.3,0,32.4-3.9,45.2-11.7
		c12.8-7.8,22.7-19.1,29.6-33.9l70.4,21.3c-7.9,18.9-19,35.2-33.3,48.9c-14.3,13.7-30.7,24.2-49.2,31.3
		C2093.3,795.1,2073.8,798.7,2053.3,798.7z M1943.2,596.2H2163V650h-219.7V596.2z"/>
	<path class="st1" d="M2392.1,798.7c-28.8,0-54.3-7.3-76.4-22c-22.2-14.7-39.3-34.8-51.3-60.5c-12-25.6-18-54.3-18-86.1
		c0-32.3,6.1-61.3,18.3-86.8c12.2-25.5,29.6-45.5,52-60s48.5-21.7,78.1-21.7s54.8,7.2,75.7,21.7c20.9,14.5,36.7,34.5,47.5,59.9
		c10.7,25.4,16.1,54.4,16.1,86.9c0,32.3-5.4,61.2-16.3,86.6c-10.8,25.4-27,45.4-48.4,60C2448.1,791.4,2422.3,798.7,2392.1,798.7z
		 M2403.1,734.9c18.5,0,33.7-4.3,45.5-12.9c11.8-8.6,20.6-20.7,26.2-36.4c5.6-15.7,8.4-34.2,8.4-55.4c0-21.3-2.8-39.7-8.3-55.3
		c-5.5-15.6-14-27.7-25.6-36.4c-11.5-8.7-26.2-13-43.9-13c-18.5,0-34.1,4.6-46.6,13.8c-12.5,9.2-21.8,21.6-27.9,37.4
		c-6.1,15.8-9.2,33.6-9.2,53.5c0,20.1,3,38.1,8.9,53.8c5.9,15.8,15,28.2,27.2,37.3C2370.1,730.3,2385.1,734.9,2403.1,734.9z
		 M2483.2,565.7h-8.9V364h71.9v425.8h-63V565.7z"/>
	<path class="st1" d="M369.4,1508.5c-28.8,0-54.3-7.3-76.4-22c-22.2-14.7-39.3-34.8-51.3-60.5c-12-25.6-18-54.3-18-86.1
		c0-32.3,6.1-61.3,18.3-86.8c12.2-25.5,29.6-45.5,52-60c22.5-14.5,48.5-21.7,78.1-21.7c29.6,0,54.8,7.2,75.7,21.7
		c20.9,14.5,36.7,34.5,47.5,59.9c10.7,25.4,16.1,54.4,16.1,86.9c0,32.3-5.4,61.2-16.3,86.6c-10.8,25.4-27,45.4-48.4,60
		C425.4,1501.2,399.6,1508.5,369.4,1508.5z M380.4,1444.6c18.5,0,33.7-4.3,45.5-12.9c11.8-8.6,20.6-20.7,26.2-36.4
		s8.4-34.2,8.4-55.4c0-21.3-2.8-39.7-8.3-55.3c-5.5-15.6-14-27.7-25.6-36.4c-11.5-8.7-26.2-13-43.9-13c-18.5,0-34.1,4.6-46.6,13.8
		c-12.5,9.2-21.8,21.6-27.9,37.4c-6.1,15.8-9.2,33.6-9.2,53.5c0,20.1,3,38.1,8.9,53.8c5.9,15.8,15,28.2,27.2,37.3
		C347.4,1440.1,362.4,1444.6,380.4,1444.6z M460.5,1275.4h-8.9v-201.7h71.9v425.8h-63V1275.4z"/>
	<path class="st1" d="M751.5,1508.5c-31.9,0-60.2-6.9-84.9-20.8c-24.6-13.9-43.8-33.4-57.5-58.6c-13.7-25.1-20.6-53.7-20.6-85.6
		c0-34.5,6.7-64.7,20.1-90.6c13.4-25.9,32.1-46,56-60.2c24-14.2,51.5-21.3,82.7-21.3c32.7,0,60.8,7.7,84.1,23.1s40.6,37.3,51.8,65.7
		c11.1,28.4,15.4,61.6,12.9,99.7h-70.7v-26c-0.2-23.3-3-42.2-8.3-56.8c-5.3-14.6-13.5-25.4-24.4-32.5c-10.9-7.1-25.1-10.6-42.4-10.6
		c-19.3,0-35.4,4-48.2,12c-12.8,8-22.4,19.9-28.7,35.6c-6.3,15.8-9.5,35.3-9.5,58.6c0,21.7,3.2,40.1,9.5,55.3
		c6.3,15.2,15.7,26.7,28.2,34.6c12.5,7.9,27.7,11.8,45.7,11.8c17.3,0,32.4-3.9,45.2-11.7c12.8-7.8,22.7-19.1,29.6-33.9l70.4,21.3
		c-7.9,18.9-19,35.2-33.3,48.9c-14.3,13.7-30.7,24.2-49.2,31.3C791.5,1504.9,772,1508.5,751.5,1508.5z M641.5,1305.9h219.7v53.8
		H641.5V1305.9z"/>
	<path class="st1" d="M1085.7,1508.5c-26,0-49-4-68.9-12c-19.9-8-36-19.5-48.4-34.6c-12.3-15.1-20.3-33.4-23.8-54.9l72.7-11.2
		c2.4,10.6,6.8,19.8,13.5,27.4c6.6,7.6,15,13.4,25.1,17.4c10.2,4,21.7,6.1,34.7,6.1c11.2,0,20.9-1.5,29-4.6
		c8.1-3.1,14.2-7.4,18.5-13.2c4.2-5.7,6.4-12.5,6.4-20.4c0-7.7-1.8-13.6-5.3-17.9c-3.5-4.2-10.7-8.3-21.6-12.3
		c-10.8-3.9-29-9.3-54.4-16c-27.2-7.1-48.6-14.7-64.2-22.9c-15.6-8.2-26.8-17.8-33.7-29c-6.9-11.1-10.4-24.8-10.4-41
		c0-19.7,5.2-37,15.5-51.9c10.4-14.9,25-26.3,43.9-34.3s41-12,66.2-12c24.6,0,46.6,3.8,65.9,11.5c19.3,7.7,34.9,18.7,46.7,33
		c11.8,14.3,19.1,30.9,21.9,49.8l-72.7,13c-1.4-9.1-4.6-16.9-9.8-23.5c-5.1-6.6-12-11.8-20.6-15.5c-8.6-3.7-18.7-5.9-30.3-6.5
		c-11-0.6-20.8,0.4-29.3,3c-8.5,2.6-15,6.4-19.7,11.5c-4.6,5.1-6.9,11.2-6.9,18.3c0,6.3,2.1,11.6,6.4,15.8
		c4.2,4.2,12.3,8.5,24.1,12.7c11.8,4.2,30.8,9.6,56.8,16.1c25.8,6.5,46.3,13.9,61.4,22.3c15.1,8.4,26,18.3,32.8,29.9
		c6.8,11.5,10.2,25.7,10.2,42.4c0,21.3-5.3,39.7-15.8,55.2c-10.5,15.5-25.7,27.4-45.5,35.6
		C1136.4,1504.3,1112.9,1508.5,1085.7,1508.5z"/>
	<path class="st1" d="M1288.5,1066.4h71.3v65.4h-71.3V1066.4z M1288.5,1180.2h71.3v319.4h-71.3V1180.2z"/>
	<path class="st1" d="M1576.6,1508.5c-28.8,0-54.3-7.3-76.4-22c-22.2-14.7-39.3-34.8-51.3-60.5c-12-25.6-18-54.3-18-86.1
		c0-32.3,6.1-61.3,18.3-86.8c12.2-25.5,29.6-45.5,52-60c22.5-14.5,48.5-21.7,78.1-21.7s54.8,7.2,75.7,21.7
		c20.9,14.5,36.7,34.5,47.5,59.9c10.7,25.4,16.1,54.4,16.1,86.9c0,32.3-5.4,61.2-16.3,86.6c-10.8,25.4-27,45.4-48.4,60
		C1632.5,1501.2,1606.7,1508.5,1576.6,1508.5z M1582.8,1650.4c-26.8,0-51.6-6.2-74.2-18.5c-22.7-12.3-40.2-29.3-52.6-51l65.6-32.5
		c5.7,11.2,14.1,19.8,25.3,25.6c11.1,5.8,23.2,8.7,36.2,8.7c15.2,0,28.5-2.6,39.9-7.8c11.4-5.2,20.4-13,26.8-23.2
		c6.4-10.3,9.4-22.9,9-37.9V1423h8.9v-242.8h62.4V1515c0,17.5-1.5,32.5-4.4,44.9c-7.1,30-23.3,52.5-48.6,67.7
		C1651.6,1642.8,1620.2,1650.4,1582.8,1650.4z M1587.5,1444.6c18.5,0,33.7-4.3,45.5-12.9c11.8-8.6,20.6-20.7,26.2-36.4
		c5.6-15.7,8.4-34.2,8.4-55.4c0-21.3-2.8-39.7-8.3-55.3c-5.5-15.6-14-27.7-25.6-36.4c-11.5-8.7-26.2-13-43.9-13
		c-18.5,0-34.1,4.6-46.6,13.8c-12.5,9.2-21.8,21.6-27.9,37.4c-6.1,15.8-9.2,33.6-9.2,53.5c0,20.1,3,38.1,8.9,53.8
		c5.9,15.8,15,28.2,27.2,37.3C1554.5,1440.1,1569.6,1444.6,1587.5,1444.6z"/>
	<path class="st1" d="M1812.2,1180.2h63.6v99.1h8.6v220.3h-72.2V1180.2z M2033.7,1345.8c0-18.5-1.7-35.3-5-50.4
		c-3.4-15.1-10.5-28.4-21.6-39.9c-11-11.5-27-17.3-47.9-17.3c-13.8,0-26.2,2.9-37.1,8.7c-10.9,5.8-20,15.9-27.1,30.3
		c-7.1,14.4-10.6,33.8-10.6,58.3l-42.3-18c0-27.6,5.3-52.4,16-74.5c10.6-22.1,26.4-39.6,47.2-52.5c20.8-12.9,45.8-19.4,75-19.4
		c35.7,0,62.8,9,81.5,27.1s30.7,37.8,36.1,59.3c5.4,21.5,8.1,42.8,8.1,63.9v178.3h-72.2V1345.8z"/>
</g>
<polygon class="st2" points="1702.9,2055.7 1708.6,2055.7 1708.6,2055.7 1702.9,2055.7 "/>
<g>
	<path class="st1" d="M203,1974.5l17.7,0.1l15.8,52l16.1-52h15.2l16,52l15.9-52h17.7l-24.8,81h-14.1l-18.4-55.7l-18.3,55.7h-14.1
		L203,1974.5z"/>
	<path class="st1" d="M332.4,1945.8h18.1v16.6h-18.1V1945.8z M332.4,1974.7h18.1v81h-18.1V1974.7z"/>
	<path class="st1" d="M363.9,1974.7h56.5v14.2h-56.5V1974.7z M420.4,2055.7c-8.9,1.7-16.8,1.8-23.8,0.4c-7-1.5-12-4.9-14.9-10.4
		c-1.5-2.7-2.4-5.5-2.7-8.4c-0.4-2.8-0.5-6.6-0.4-11.2v-3.5v-70.4h18v69.4v2.3c-0.1,3.2,0,5.8,0.2,7.6c0.2,1.8,0.7,3.4,1.5,4.6
		c1.7,2.8,4.4,4.4,8,4.9c3.6,0.5,8.3,0.4,14.1-0.5V2055.7z"/>
	<path class="st1" d="M437.7,1947.7h16.1v56.9h2.2v51.1h-18.3V1947.7z M493.9,2016.7c0-4.7-0.4-9-1.3-12.8
		c-0.9-3.8-2.7-7.2-5.5-10.1c-2.8-2.9-6.9-4.4-12.1-4.4c-3.5,0-6.6,0.7-9.4,2.2s-5.1,4-6.9,7.7c-1.8,3.7-2.7,8.6-2.7,14.8l-10.7-4.6
		c0-7,1.4-13.3,4.1-18.9c2.7-5.6,6.7-10,12-13.3c5.3-3.3,11.6-4.9,19-4.9c9,0,15.9,2.3,20.7,6.9c4.7,4.6,7.8,9.6,9.2,15
		c1.4,5.5,2.1,10.8,2.1,16.2v45.2h-18.3V2016.7z"/>
	<path class="st1" d="M597.5,2057.9c-8,0-15.1-1.8-21.1-5.4c-6.1-3.6-10.8-8.7-14.1-15.1c-3.3-6.5-5-13.9-5-22.2
		c0-8.4,1.7-15.8,5.1-22.3c3.4-6.5,8.1-11.5,14.2-15.1c6.1-3.6,13.1-5.4,21-5.4c8,0,15.1,1.8,21.2,5.4c6.1,3.6,10.8,8.7,14.2,15.1
		c3.3,6.5,5,13.9,5,22.2c0,8.4-1.7,15.8-5.1,22.2c-3.4,6.5-8.1,11.5-14.2,15.1C612.5,2056.1,605.5,2057.9,597.5,2057.9z M597.5,2041
		c4.6,0,8.6-1.1,11.8-3.2c3.2-2.1,5.6-5.2,7.2-9c1.6-3.9,2.4-8.4,2.4-13.5c0-8-1.8-14.4-5.5-18.9c-3.7-4.6-8.9-6.9-15.8-6.9
		c-4.8,0-8.7,1.1-11.9,3.2c-3.1,2.1-5.5,5.1-7,9c-1.5,3.8-2.3,8.4-2.3,13.6c0,5.3,0.8,9.9,2.4,13.8c1.6,3.9,4,6.9,7.1,8.9
		C589,2039.9,592.9,2041,597.5,2041z"/>
	<path class="st1" d="M655.9,1945.4H674v110.2h-18.1V1945.4z"/>
	<path class="st1" d="M698,1945.4h18.1v110.2H698V1945.4z"/>
	<path class="st1" d="M740.1,1945.8h18.1v16.6h-18.1V1945.8z M740.1,1974.7h18.1v81h-18.1V1974.7z"/>
	<path class="st1" d="M817.5,2057.9c-8.1,0-15.3-1.8-21.5-5.3c-6.3-3.5-11.1-8.5-14.6-14.8c-3.5-6.4-5.2-13.6-5.2-21.7
		c0-8.7,1.7-16.4,5.1-23c3.4-6.6,8.1-11.7,14.2-15.3c6.1-3.6,13.1-5.4,21-5.4c8.3,0,15.4,2,21.3,5.9c5.9,3.9,10.3,9.4,13.1,16.6
		c2.8,7.2,3.9,15.6,3.3,25.3h-17.9v-6.6c-0.1-5.9-0.8-10.7-2.1-14.4c-1.4-3.7-3.4-6.4-6.2-8.2c-2.8-1.8-6.4-2.7-10.8-2.7
		c-4.9,0-9,1-12.2,3c-3.3,2-5.7,5-7.3,9c-1.6,4-2.4,9-2.4,14.9c0,5.5,0.8,10.2,2.4,14c1.6,3.9,4,6.8,7.2,8.8c3.2,2,7,3,11.6,3
		c4.4,0,8.2-1,11.5-3c3.2-2,5.7-4.8,7.5-8.6l17.9,5.4c-2,4.8-4.8,8.9-8.4,12.4c-3.6,3.5-7.8,6.1-12.5,8
		C827.6,2057,822.7,2057.9,817.5,2057.9z M789.6,2006.6h55.7v13.6h-55.7V2006.6z"/>
	<path class="st1" d="M900.8,1974.7h16v56.9h2.2v60.1h-18.2V1974.7z M939.9,2057.9c-7.7,0-14.2-1.9-19.6-5.5s-9.5-8.8-12.2-15.2
		c-2.8-6.5-4.1-13.8-4.1-22c0-8.2,1.4-15.6,4.1-22c2.7-6.5,6.7-11.5,12-15.2c5.3-3.7,11.7-5.5,19.2-5.5s14.1,1.8,19.8,5.5
		c5.7,3.7,10.1,8.8,13.2,15.2c3.1,6.5,4.6,13.8,4.6,22c0,8.1-1.5,15.3-4.6,21.8c-3.1,6.5-7.4,11.6-13,15.3
		C953.6,2056.1,947.2,2057.9,939.9,2057.9z M937.1,2041.7c4.5,0,8.4-1.1,11.5-3.4c3.1-2.3,5.4-5.4,6.9-9.5c1.5-4,2.2-8.5,2.2-13.6
		c0-5-0.8-9.6-2.3-13.6c-1.6-4-3.9-7.2-7.1-9.5c-3.2-2.3-7.1-3.5-11.8-3.5c-4.5,0-8.2,1.1-11.1,3.3c-2.9,2.2-5.1,5.3-6.5,9.2
		c-1.4,3.9-2.1,8.6-2.1,14s0.7,10.1,2.1,14.1c1.4,4,3.6,7,6.6,9.2C928.5,2040.6,932.4,2041.7,937.1,2041.7z"/>
	<path class="st1" d="M1016,2057.9c-5.7,0-10.5-1.1-14.6-3.3c-4.1-2.2-7.2-5.1-9.3-8.8c-2.1-3.7-3.2-7.8-3.2-12.3c0-6,1.5-11,4.5-15
		c3-4,7.6-7.1,14-9.2c3.6-1.2,8-2.3,13-3.2s12.2-2,21.4-3.3c1.2-0.2,2.4-0.4,3.7-0.6c1.3-0.2,2.5-0.4,3.6-0.6l-6.5,3.7
		c0-3.8-0.6-6.9-1.6-9.3c-1.1-2.4-2.9-4.2-5.3-5.3c-2.5-1.1-5.7-1.7-9.7-1.7c-4,0-7.7,0.9-11,2.7c-3.3,1.8-5.5,4.7-6.8,8.6
		l-16.5-5.2c2-7.1,5.9-12.7,11.7-16.7c5.7-4,13.2-6,22.5-6c7.5,0,14,1.2,19.4,3.7c5.3,2.5,9.3,6.3,11.9,11.4
		c1.3,2.6,2.2,5.3,2.5,8.1c0.3,2.8,0.5,6.2,0.5,10.4v49.7h-15.8v-17.5l2.6,2.8c-2.5,4-5.2,7.2-8.1,9.6s-6.3,4.3-10,5.5
		C1025.1,2057.3,1020.8,2057.9,1016,2057.9z M1019.6,2043.5c3.8,0,7.2-0.7,10.2-2.1c2.9-1.4,5.3-3.1,7-5.1c1.8-2,3-4.1,3.7-6.2
		c0.8-1.8,1.2-3.8,1.5-6.2c0.2-2.3,0.3-4.8,0.3-7.5v-1.5l5.5,1.7l-6.5,1.1c-6.8,1-12,1.9-15.6,2.6c-3.7,0.7-6.8,1.5-9.4,2.3
		c-3.3,1.2-5.7,2.6-7.4,4.3c-1.6,1.7-2.5,3.8-2.5,6.3c0,2,0.5,3.8,1.5,5.3c1,1.6,2.5,2.8,4.4,3.6S1016.8,2043.5,1019.6,2043.5z"/>
	<path class="st1" d="M1081.2,1945.4h18.1v110.2h-18.1V1945.4z"/>
	<path class="st1" d="M1121.7,1974.7h16v25.1h2.2v55.9h-18.2V1974.7z M1170.5,2006.7c0-3.7-0.6-6.9-1.9-9.6c-1.2-2.7-3-4.8-5.3-6.2
		c-2.3-1.4-5-2.1-8.2-2.1c-3,0-5.7,0.7-7.9,2.1c-2.3,1.4-4.1,3.4-5.4,6c-1.3,2.6-1.9,5.5-1.9,8.9l-8.1-5.4c0-5.2,1.3-9.9,3.9-14.1
		c2.6-4.2,6.1-7.5,10.6-10c4.5-2.4,9.4-3.6,14.9-3.6c5.9,0,10.9,1.3,15,3.8c4.1,2.5,7.2,6,9.3,10.4c2,4.4,3.1,9.5,3.1,15.1v53.7h-18
		V2006.7z M1219.1,2006.5c0-3.6-0.6-6.8-1.9-9.5c-1.3-2.7-3-4.7-5.3-6.1c-2.3-1.4-5-2.1-8.1-2.1c-2.9,0-5.5,0.7-7.8,2
		c-2.3,1.4-4.2,3.3-5.5,5.9c-1.3,2.6-2,5.6-2,9.1l-8-4.7c-0.1-5.5,1.2-10.4,3.8-14.7c2.6-4.3,6-7.7,10.5-10.1
		c4.4-2.4,9.3-3.6,14.7-3.6c5.9,0,10.9,1.2,15,3.6c4.2,2.4,7.3,5.8,9.5,10.2c2.1,4.4,3.2,9.6,3.2,15.4v53.8h-18.1V2006.5z"/>
	<path class="st1" d="M1293.5,2057.9c-8.1,0-15.3-1.8-21.5-5.3c-6.3-3.5-11.1-8.5-14.6-14.8c-3.5-6.4-5.2-13.6-5.2-21.7
		c0-8.7,1.7-16.4,5.1-23c3.4-6.6,8.1-11.7,14.2-15.3c6.1-3.6,13.1-5.4,21-5.4c8.3,0,15.4,2,21.3,5.9c5.9,3.9,10.3,9.4,13.1,16.6
		c2.8,7.2,3.9,15.6,3.3,25.3h-17.9v-6.6c-0.1-5.9-0.8-10.7-2.1-14.4c-1.3-3.7-3.4-6.4-6.2-8.2c-2.8-1.8-6.4-2.7-10.8-2.7
		c-4.9,0-9,1-12.2,3c-3.3,2-5.7,5-7.3,9c-1.6,4-2.4,9-2.4,14.9c0,5.5,0.8,10.2,2.4,14c1.6,3.9,4,6.8,7.2,8.8c3.2,2,7,3,11.6,3
		c4.4,0,8.2-1,11.5-3c3.2-2,5.8-4.8,7.5-8.6l17.8,5.4c-2,4.8-4.8,8.9-8.4,12.4c-3.6,3.5-7.8,6.1-12.5,8
		C1303.6,2057,1298.7,2057.9,1293.5,2057.9z M1265.6,2006.6h55.7v13.6h-55.7V2006.6z"/>
	<path class="st1" d="M1347,1974.7h16v19.7l-1.9-2.6c1-2.7,2.4-5.2,4.1-7.5c1.7-2.2,3.7-4,5.9-5.4c2-1.3,4.1-2.4,6.5-3.2
		c2.4-0.8,4.9-1.2,7.5-1.4c2.6-0.2,5.1-0.1,7.5,0.3v16.9c-2.5-0.8-5.4-1-8.4-0.6c-3.1,0.3-5.8,1.2-8.3,2.6c-2.5,1.3-4.5,3-6.1,5.1
		c-1.6,2.1-2.8,4.4-3.5,7c-0.8,2.6-1.1,5.6-1.1,8.9v41.2H1347V1974.7z"/>
	<path class="st3" d="M233.1,2417.9c-5.7,0-10.5-1.1-14.6-3.3c-4.1-2.2-7.2-5.1-9.3-8.8c-2.1-3.7-3.2-7.8-3.2-12.3
		c0-6,1.5-11,4.5-15c3-4,7.6-7.1,14-9.2c3.6-1.2,8-2.3,13-3.2s12.2-2,21.4-3.3c1.2-0.2,2.4-0.4,3.7-0.6c1.3-0.2,2.5-0.4,3.6-0.6
		l-6.5,3.7c0-3.8-0.6-6.9-1.6-9.3c-1.1-2.4-2.9-4.2-5.3-5.3c-2.5-1.1-5.7-1.7-9.7-1.7c-4,0-7.7,0.9-11,2.7c-3.3,1.8-5.5,4.7-6.8,8.6
		l-16.5-5.2c2-7.1,5.9-12.7,11.7-16.7c5.7-4,13.2-6,22.5-6c7.5,0,14,1.2,19.4,3.7c5.3,2.5,9.3,6.3,11.9,11.4
		c1.3,2.6,2.2,5.3,2.5,8.1c0.3,2.8,0.5,6.2,0.5,10.4v49.7h-15.8v-17.5l2.6,2.8c-2.5,4-5.2,7.2-8.1,9.6s-6.3,4.3-10,5.5
		C242.3,2417.3,238,2417.9,233.1,2417.9z M236.7,2403.5c3.8,0,7.2-0.7,10.2-2.1c2.9-1.4,5.3-3.1,7-5.1c1.8-2,3-4.1,3.7-6.2
		c0.8-1.8,1.2-3.8,1.5-6.2c0.2-2.3,0.3-4.8,0.3-7.5v-1.5l5.5,1.7l-6.5,1.1c-6.8,1-12,1.9-15.6,2.6c-3.7,0.7-6.8,1.5-9.4,2.3
		c-3.3,1.2-5.7,2.6-7.4,4.3c-1.6,1.7-2.5,3.8-2.5,6.3c0,2,0.5,3.8,1.5,5.3c1,1.6,2.5,2.8,4.4,3.6S233.9,2403.5,236.7,2403.5z"/>
	<path class="st3" d="M296.7,2334.7h16.1v25.1h2.2v55.9h-18.3V2334.7z M352.9,2376.7c0-4.7-0.4-9-1.3-12.8
		c-0.9-3.8-2.7-7.2-5.5-10.1c-2.8-2.9-6.9-4.4-12.1-4.4c-3.5,0-6.6,0.7-9.4,2.2s-5.1,4-6.9,7.7c-1.8,3.7-2.7,8.6-2.7,14.8l-10.7-4.6
		c0-7,1.4-13.3,4.1-18.9c2.7-5.6,6.7-10,12-13.3c5.3-3.3,11.6-4.9,19-4.9c9,0,15.9,2.3,20.7,6.9c4.7,4.6,7.8,9.6,9.2,15
		c1.4,5.5,2.1,10.8,2.1,16.2v45.2h-18.3V2376.7z"/>
	<path class="st3" d="M456.5,2417.9c-8,0-15.1-1.8-21.1-5.4c-6.1-3.6-10.8-8.7-14.1-15.1c-3.3-6.5-5-13.9-5-22.2
		c0-8.4,1.7-15.8,5.1-22.3c3.4-6.5,8.1-11.5,14.2-15.1c6.1-3.6,13.1-5.4,21-5.4c8,0,15.1,1.8,21.2,5.4c6.1,3.6,10.8,8.7,14.2,15.1
		c3.3,6.5,5,13.9,5,22.2c0,8.4-1.7,15.8-5.1,22.2c-3.4,6.5-8.1,11.5-14.2,15.1C471.5,2416.1,464.5,2417.9,456.5,2417.9z M456.5,2401
		c4.6,0,8.6-1.1,11.8-3.2c3.2-2.1,5.6-5.2,7.2-9c1.6-3.9,2.4-8.4,2.4-13.5c0-8-1.8-14.4-5.5-18.9c-3.7-4.6-8.9-6.9-15.8-6.9
		c-4.8,0-8.7,1.1-11.9,3.2c-3.1,2.1-5.5,5.1-7,9c-1.5,3.8-2.3,8.4-2.3,13.6c0,5.3,0.8,9.9,2.4,13.8c1.6,3.9,4,6.9,7.1,8.9
		C448,2399.9,451.9,2401,456.5,2401z"/>
	<path class="st3" d="M513.3,2334.7h16v56.9h2.2v60.1h-18.2V2334.7z M552.3,2417.9c-7.7,0-14.2-1.9-19.6-5.5s-9.5-8.8-12.2-15.2
		c-2.8-6.5-4.1-13.8-4.1-22c0-8.2,1.4-15.6,4.1-22c2.7-6.5,6.7-11.5,12-15.2c5.3-3.7,11.7-5.5,19.2-5.5s14.1,1.8,19.8,5.5
		c5.7,3.7,10.1,8.8,13.2,15.2c3.1,6.5,4.6,13.8,4.6,22c0,8.1-1.5,15.3-4.6,21.8c-3.1,6.5-7.4,11.6-13,15.3
		C566.1,2416.1,559.6,2417.9,552.3,2417.9z M549.6,2401.7c4.5,0,8.4-1.1,11.5-3.4c3.1-2.3,5.4-5.4,6.9-9.5c1.5-4,2.2-8.5,2.2-13.6
		c0-5-0.8-9.6-2.3-13.6c-1.6-4-3.9-7.2-7.1-9.5c-3.2-2.3-7.1-3.5-11.8-3.5c-4.5,0-8.2,1.1-11.1,3.3c-2.9,2.2-5.1,5.3-6.5,9.2
		c-1.4,3.9-2.1,8.6-2.1,14s0.7,10.1,2.1,14.1c1.4,4,3.6,7,6.6,9.2C541,2400.6,544.9,2401.7,549.6,2401.7z"/>
	<path class="st3" d="M642.6,2417.9c-8.1,0-15.3-1.8-21.5-5.3c-6.3-3.5-11.1-8.5-14.6-14.8c-3.5-6.4-5.2-13.6-5.2-21.7
		c0-8.7,1.7-16.4,5.1-23c3.4-6.6,8.1-11.7,14.2-15.3c6.1-3.6,13.1-5.4,21-5.4c8.3,0,15.4,2,21.3,5.9c5.9,3.9,10.3,9.4,13.1,16.6
		c2.8,7.2,3.9,15.6,3.3,25.3h-17.9v-6.6c-0.1-5.9-0.8-10.7-2.1-14.4c-1.4-3.7-3.4-6.4-6.2-8.2c-2.8-1.8-6.4-2.7-10.8-2.7
		c-4.9,0-9,1-12.2,3c-3.3,2-5.7,5-7.3,9c-1.6,4-2.4,9-2.4,14.9c0,5.5,0.8,10.2,2.4,14c1.6,3.9,4,6.8,7.2,8.8c3.2,2,7,3,11.6,3
		c4.4,0,8.2-1,11.5-3c3.2-2,5.7-4.8,7.5-8.6l17.9,5.4c-2,4.8-4.8,8.9-8.4,12.4c-3.6,3.5-7.8,6.1-12.5,8
		C652.8,2417,647.8,2417.9,642.6,2417.9z M614.7,2366.6h55.7v13.6h-55.7V2366.6z"/>
	<path class="st3" d="M693.7,2334.7h16.1v25.1h2.2v55.9h-18.3V2334.7z M749.9,2376.7c0-4.7-0.4-9-1.3-12.8
		c-0.9-3.8-2.7-7.2-5.5-10.1c-2.8-2.9-6.9-4.4-12.1-4.4c-3.5,0-6.6,0.7-9.4,2.2s-5.1,4-6.9,7.7c-1.8,3.7-2.7,8.6-2.7,14.8l-10.7-4.6
		c0-7,1.4-13.3,4.1-18.9c2.7-5.6,6.7-10,12-13.3c5.3-3.3,11.6-4.9,19-4.9c9,0,15.9,2.3,20.7,6.9c4.7,4.6,7.8,9.6,9.2,15
		c1.4,5.5,2.1,10.8,2.1,16.2v45.2h-18.3V2376.7z"/>
	<path class="st3" d="M840.3,2417.9c-5.7,0-10.5-1.1-14.6-3.3c-4.1-2.2-7.2-5.1-9.3-8.8c-2.1-3.7-3.2-7.8-3.2-12.3
		c0-6,1.5-11,4.5-15c3-4,7.6-7.1,14-9.2c3.6-1.2,8-2.3,13-3.2s12.2-2,21.4-3.3c1.2-0.2,2.4-0.4,3.7-0.6c1.3-0.2,2.5-0.4,3.6-0.6
		l-6.5,3.7c0-3.8-0.6-6.9-1.6-9.3c-1.1-2.4-2.9-4.2-5.3-5.3c-2.5-1.1-5.7-1.7-9.7-1.7c-4,0-7.7,0.9-11,2.7c-3.3,1.8-5.5,4.7-6.8,8.6
		l-16.5-5.2c2-7.1,5.9-12.7,11.7-16.7c5.7-4,13.2-6,22.5-6c7.5,0,14,1.2,19.4,3.7c5.3,2.5,9.3,6.3,11.9,11.4
		c1.3,2.6,2.2,5.3,2.5,8.1c0.3,2.8,0.5,6.2,0.5,10.4v49.7h-15.8v-17.5l2.6,2.8c-2.5,4-5.2,7.2-8.1,9.6s-6.3,4.3-10,5.5
		C849.5,2417.3,845.2,2417.9,840.3,2417.9z M843.9,2403.5c3.8,0,7.2-0.7,10.2-2.1c2.9-1.4,5.3-3.1,7-5.1c1.8-2,3-4.1,3.7-6.2
		c0.8-1.8,1.2-3.8,1.5-6.2c0.2-2.3,0.3-4.8,0.3-7.5v-1.5l5.5,1.7l-6.5,1.1c-6.8,1-12,1.9-15.6,2.6c-3.7,0.7-6.8,1.5-9.4,2.3
		c-3.3,1.2-5.7,2.6-7.4,4.3c-1.6,1.7-2.5,3.8-2.5,6.3c0,2,0.5,3.8,1.5,5.3c1,1.6,2.5,2.8,4.4,3.6S841.1,2403.5,843.9,2403.5z"/>
	<path class="st3" d="M939.3,2417.9c-8.2,0-15.2-1.8-21.2-5.5c-6-3.7-10.5-8.7-13.7-15.2c-3.1-6.5-4.8-13.8-4.8-22
		c0-8.3,1.7-15.7,4.9-22.1s7.8-11.5,13.9-15.1c6-3.7,13.1-5.5,21.1-5.5c6.1,0,11.6,1,16.6,3.1c4.9,2.1,9.1,5.1,12.4,9
		c3.3,3.9,5.6,8.5,6.9,13.8l-18,4.9c-1.4-4.3-3.7-7.7-6.9-10.1c-3.2-2.4-6.9-3.7-11.1-3.7c-6.8,0-11.9,2.4-15.4,7
		c-3.4,4.7-5.2,11-5.2,18.8c0,5.2,0.8,9.7,2.3,13.6c1.5,3.9,3.9,6.9,7,9c3.1,2.1,6.8,3.2,11.2,3.2c4.7,0,8.4-1.1,11.2-3.2
		c2.8-2.1,5-5.3,6.4-9.6l18.5,4.1c-2.5,8.2-6.9,14.6-13.1,19C956,2415.7,948.3,2417.9,939.3,2417.9z"/>
	<path class="st3" d="M1023.3,2417.9c-8.2,0-15.2-1.8-21.2-5.5c-6-3.7-10.5-8.7-13.7-15.2c-3.1-6.5-4.8-13.8-4.8-22
		c0-8.3,1.7-15.7,4.9-22.1s7.8-11.5,13.9-15.1c6-3.7,13.1-5.5,21.1-5.5c6.1,0,11.6,1,16.6,3.1c4.9,2.1,9.1,5.1,12.4,9
		c3.3,3.9,5.6,8.5,6.9,13.8l-18,4.9c-1.4-4.3-3.7-7.7-6.9-10.1c-3.2-2.4-6.9-3.7-11.1-3.7c-6.8,0-11.9,2.4-15.4,7
		c-3.4,4.7-5.2,11-5.2,18.8c0,5.2,0.8,9.7,2.3,13.6c1.5,3.9,3.9,6.9,7,9c3.1,2.1,6.8,3.2,11.2,3.2c4.7,0,8.4-1.1,11.2-3.2
		c2.8-2.1,5-5.3,6.4-9.6l18.5,4.1c-2.5,8.2-6.9,14.6-13.1,19C1040,2415.7,1032.4,2417.9,1023.3,2417.9z"/>
	<path class="st3" d="M1109.1,2417.9c-8.1,0-15.3-1.8-21.5-5.3c-6.3-3.5-11.1-8.5-14.6-14.8c-3.5-6.4-5.2-13.6-5.2-21.7
		c0-8.7,1.7-16.4,5.1-23c3.4-6.6,8.1-11.7,14.2-15.3c6.1-3.6,13.1-5.4,21-5.4c8.3,0,15.4,2,21.3,5.9c5.9,3.9,10.3,9.4,13.1,16.6
		c2.8,7.2,3.9,15.6,3.3,25.3h-17.9v-6.6c-0.1-5.9-0.8-10.7-2.1-14.4c-1.4-3.7-3.4-6.4-6.2-8.2c-2.8-1.8-6.4-2.7-10.8-2.7
		c-4.9,0-9,1-12.2,3c-3.3,2-5.7,5-7.3,9c-1.6,4-2.4,9-2.4,14.9c0,5.5,0.8,10.2,2.4,14c1.6,3.9,4,6.8,7.2,8.8c3.2,2,7,3,11.6,3
		c4.4,0,8.2-1,11.5-3c3.2-2,5.7-4.8,7.5-8.6l17.9,5.4c-2,4.8-4.8,8.9-8.4,12.4c-3.6,3.5-7.8,6.1-12.5,8
		C1119.2,2417,1114.3,2417.9,1109.1,2417.9z M1081.2,2366.6h55.7v13.6h-55.7V2366.6z"/>
	<path class="st3" d="M1193.8,2417.9c-6.6,0-12.4-1-17.5-3c-5.1-2-9.1-4.9-12.3-8.8c-3.1-3.8-5.1-8.5-6-13.9l18.5-2.8
		c0.6,2.7,1.7,5,3.4,6.9c1.7,1.9,3.8,3.4,6.4,4.4c2.6,1,5.5,1.5,8.8,1.5c2.9,0,5.3-0.4,7.4-1.2c2-0.8,3.6-1.9,4.7-3.3
		c1.1-1.4,1.6-3.2,1.6-5.2c0-1.9-0.5-3.5-1.4-4.5c-0.9-1.1-2.7-2.1-5.5-3.1c-2.8-1-7.4-2.3-13.8-4c-6.9-1.8-12.3-3.7-16.3-5.8
		c-4-2.1-6.8-4.5-8.5-7.3c-1.8-2.8-2.6-6.3-2.6-10.4c0-5,1.3-9.4,3.9-13.2c2.6-3.8,6.3-6.7,11.1-8.7c4.8-2,10.4-3,16.8-3
		c6.2,0,11.8,1,16.7,2.9c4.9,2,8.9,4.7,11.9,8.4s4.8,7.8,5.5,12.6l-18.5,3.3c-0.4-2.3-1.2-4.3-2.5-6c-1.3-1.7-3-3-5.2-3.9
		c-2.2-0.9-4.7-1.5-7.7-1.7c-2.8-0.2-5.3,0.1-7.4,0.8c-2.2,0.7-3.8,1.6-5,2.9c-1.2,1.3-1.8,2.8-1.8,4.6c0,1.6,0.5,2.9,1.6,4
		c1.1,1.1,3.1,2.2,6.1,3.2c3,1.1,7.8,2.4,14.4,4.1c6.5,1.7,11.7,3.5,15.6,5.7c3.8,2.1,6.6,4.7,8.3,7.6c1.7,2.9,2.6,6.5,2.6,10.8
		c0,5.4-1.3,10.1-4,14c-2.7,3.9-6.5,6.9-11.5,9C1206.7,2416.9,1200.7,2417.9,1193.8,2417.9z"/>
	<path class="st3" d="M1275,2417.9c-6.6,0-12.4-1-17.5-3c-5.1-2-9.1-4.9-12.3-8.8c-3.1-3.8-5.1-8.5-6-13.9l18.5-2.8
		c0.6,2.7,1.7,5,3.4,6.9c1.7,1.9,3.8,3.4,6.4,4.4c2.6,1,5.5,1.5,8.8,1.5c2.9,0,5.3-0.4,7.4-1.2c2-0.8,3.6-1.9,4.7-3.3
		c1.1-1.4,1.6-3.2,1.6-5.2c0-1.9-0.5-3.5-1.4-4.5c-0.9-1.1-2.7-2.1-5.5-3.1c-2.8-1-7.4-2.3-13.8-4c-6.9-1.8-12.3-3.7-16.3-5.8
		c-4-2.1-6.8-4.5-8.5-7.3c-1.8-2.8-2.6-6.3-2.6-10.4c0-5,1.3-9.4,3.9-13.2c2.6-3.8,6.3-6.7,11.1-8.7c4.8-2,10.4-3,16.8-3
		c6.2,0,11.8,1,16.7,2.9c4.9,2,8.9,4.7,11.8,8.4c3,3.6,4.8,7.8,5.6,12.6l-18.5,3.3c-0.4-2.3-1.2-4.3-2.5-6c-1.3-1.7-3-3-5.2-3.9
		c-2.2-0.9-4.7-1.5-7.7-1.7c-2.8-0.2-5.3,0.1-7.4,0.8c-2.2,0.7-3.8,1.6-5,2.9c-1.2,1.3-1.8,2.8-1.8,4.6c0,1.6,0.5,2.9,1.6,4
		c1.1,1.1,3.1,2.2,6.1,3.2c3,1.1,7.8,2.4,14.4,4.1c6.5,1.7,11.7,3.5,15.6,5.7c3.8,2.1,6.6,4.7,8.3,7.6s2.6,6.5,2.6,10.8
		c0,5.4-1.3,10.1-4,14c-2.7,3.9-6.5,6.9-11.6,9C1287.9,2416.9,1281.9,2417.9,1275,2417.9z"/>
	<path class="st3" d="M1390.2,2417.9c-8.2,0-15.2-1.8-21.2-5.5c-6-3.7-10.5-8.7-13.7-15.2c-3.1-6.5-4.8-13.8-4.8-22
		c0-8.3,1.7-15.7,4.9-22.1c3.2-6.5,7.8-11.5,13.9-15.1s13.1-5.5,21.1-5.5c6.1,0,11.6,1,16.6,3.1c5,2.1,9.1,5.1,12.4,9
		c3.3,3.9,5.6,8.5,6.9,13.8l-18,4.9c-1.4-4.3-3.7-7.7-6.9-10.1c-3.2-2.4-6.9-3.7-11.1-3.7c-6.8,0-11.9,2.4-15.4,7
		c-3.5,4.7-5.2,11-5.2,18.8c0,5.2,0.8,9.7,2.3,13.6c1.5,3.9,3.9,6.9,7,9c3.1,2.1,6.8,3.2,11.2,3.2c4.7,0,8.4-1.1,11.2-3.2
		c2.8-2.1,5-5.3,6.4-9.6l18.5,4.1c-2.5,8.2-6.9,14.6-13.1,19C1406.9,2415.7,1399.2,2417.9,1390.2,2417.9z"/>
	<path class="st3" d="M1474.8,2417.9c-8,0-15.1-1.8-21.2-5.4c-6.1-3.6-10.8-8.7-14.1-15.1s-5-13.9-5-22.2c0-8.4,1.7-15.8,5.1-22.3
		c3.4-6.5,8.1-11.5,14.2-15.1c6.1-3.6,13.1-5.4,21-5.4c8,0,15.1,1.8,21.2,5.4c6.1,3.6,10.8,8.7,14.2,15.1c3.3,6.5,5,13.9,5,22.2
		c0,8.4-1.7,15.8-5.1,22.2c-3.4,6.5-8.1,11.5-14.2,15.1C1489.9,2416.1,1482.8,2417.9,1474.8,2417.9z M1474.8,2401
		c4.6,0,8.6-1.1,11.8-3.2c3.2-2.1,5.6-5.2,7.2-9c1.6-3.9,2.4-8.4,2.4-13.5c0-8-1.8-14.4-5.5-18.9c-3.7-4.6-8.9-6.9-15.8-6.9
		c-4.8,0-8.7,1.1-11.9,3.2c-3.1,2.1-5.5,5.1-7,9s-2.3,8.4-2.3,13.6c0,5.3,0.8,9.9,2.4,13.8c1.6,3.9,4,6.9,7.1,8.9
		C1466.4,2399.9,1470.2,2401,1474.8,2401z"/>
	<path class="st3" d="M1562.1,2418c-9.1,0-15.9-2.3-20.7-6.9c-4.7-4.6-7.8-9.6-9.2-15c-1.4-5.4-2.1-10.8-2.1-16.2v-45.2h18.3v39
		c0,4.7,0.4,9,1.3,12.8c0.8,3.8,2.7,7.2,5.5,10.1c2.8,2.9,6.8,4.4,12.2,4.4c3.5,0,6.6-0.7,9.4-2.2c2.8-1.5,5.1-4,6.9-7.7
		c1.8-3.6,2.7-8.6,2.7-14.8l10.7,4.6c0,7-1.4,13.3-4.1,18.9c-2.7,5.6-6.7,10-12,13.3C1575.9,2416.4,1569.5,2418,1562.1,2418z
		 M1588.6,2390.6h-2.2v-55.9h18.2v81h-16V2390.6z"/>
	<path class="st3" d="M1625.6,2334.7h16v19.7l-1.9-2.6c1-2.7,2.4-5.2,4.1-7.5c1.7-2.2,3.7-4,5.9-5.4c2-1.3,4.1-2.4,6.5-3.2
		c2.4-0.8,4.9-1.2,7.5-1.4c2.6-0.2,5.1-0.1,7.5,0.3v16.9c-2.5-0.8-5.4-1-8.4-0.6c-3.1,0.3-5.8,1.2-8.3,2.6c-2.5,1.3-4.5,3-6.1,5.1
		c-1.6,2.1-2.8,4.4-3.5,7c-0.8,2.6-1.1,5.6-1.1,8.9v41.2h-18.2V2334.7z"/>
	<path class="st3" d="M1713.7,2417.9c-6.6,0-12.4-1-17.5-3c-5.1-2-9.1-4.9-12.3-8.8s-5.1-8.5-6-13.9l18.5-2.8c0.6,2.7,1.7,5,3.4,6.9
		c1.7,1.9,3.8,3.4,6.4,4.4s5.5,1.5,8.8,1.5c2.9,0,5.3-0.4,7.4-1.2c2-0.8,3.6-1.9,4.7-3.3c1.1-1.4,1.6-3.2,1.6-5.2
		c0-1.9-0.5-3.5-1.4-4.5c-0.9-1.1-2.7-2.1-5.5-3.1c-2.8-1-7.3-2.3-13.8-4c-6.9-1.8-12.3-3.7-16.3-5.8c-4-2.1-6.8-4.5-8.5-7.3
		c-1.8-2.8-2.6-6.3-2.6-10.4c0-5,1.3-9.4,3.9-13.2c2.6-3.8,6.3-6.7,11.1-8.7c4.8-2,10.4-3,16.8-3c6.2,0,11.8,1,16.7,2.9
		c4.9,2,8.9,4.7,11.9,8.4s4.8,7.8,5.5,12.6l-18.5,3.3c-0.4-2.3-1.2-4.3-2.5-6c-1.3-1.7-3-3-5.2-3.9c-2.2-0.9-4.7-1.5-7.7-1.7
		c-2.8-0.2-5.3,0.1-7.4,0.8c-2.2,0.7-3.8,1.6-5,2.9c-1.2,1.3-1.8,2.8-1.8,4.6c0,1.6,0.5,2.9,1.6,4c1.1,1.1,3.1,2.2,6.1,3.2
		c3,1.1,7.8,2.4,14.4,4.1c6.5,1.7,11.7,3.5,15.6,5.7c3.8,2.1,6.6,4.7,8.3,7.6c1.7,2.9,2.6,6.5,2.6,10.8c0,5.4-1.3,10.1-4,14
		c-2.7,3.9-6.5,6.9-11.6,9C1726.6,2416.9,1720.6,2417.9,1713.7,2417.9z"/>
	<path class="st3" d="M1800.5,2417.9c-8.1,0-15.3-1.8-21.5-5.3c-6.3-3.5-11.1-8.5-14.6-14.8c-3.5-6.4-5.2-13.6-5.2-21.7
		c0-8.7,1.7-16.4,5.1-23s8.1-11.7,14.2-15.3c6.1-3.6,13.1-5.4,21-5.4c8.3,0,15.4,2,21.3,5.9c5.9,3.9,10.3,9.4,13.1,16.6
		c2.8,7.2,3.9,15.6,3.3,25.3h-17.9v-6.6c-0.1-5.9-0.8-10.7-2.1-14.4c-1.3-3.7-3.4-6.4-6.2-8.2c-2.8-1.8-6.4-2.7-10.8-2.7
		c-4.9,0-9,1-12.2,3c-3.3,2-5.7,5-7.3,9c-1.6,4-2.4,9-2.4,14.9c0,5.5,0.8,10.2,2.4,14c1.6,3.9,4,6.8,7.2,8.8c3.2,2,7,3,11.6,3
		c4.4,0,8.2-1,11.5-3c3.2-2,5.7-4.8,7.5-8.6l17.8,5.4c-2,4.8-4.8,8.9-8.4,12.4c-3.6,3.5-7.8,6.1-12.5,8
		C1810.6,2417,1805.7,2417.9,1800.5,2417.9z M1772.6,2366.6h55.7v13.6h-55.7V2366.6z"/>
	<path class="st3" d="M233.1,2597.9c-5.7,0-10.5-1.1-14.6-3.3c-4.1-2.2-7.2-5.1-9.3-8.8c-2.1-3.7-3.2-7.8-3.2-12.3
		c0-6,1.5-11,4.5-15c3-4,7.6-7.1,14-9.2c3.6-1.2,8-2.3,13-3.2s12.2-2,21.4-3.3c1.2-0.2,2.4-0.4,3.7-0.6c1.3-0.2,2.5-0.4,3.6-0.6
		l-6.5,3.7c0-3.8-0.6-6.9-1.6-9.3c-1.1-2.4-2.9-4.2-5.3-5.3c-2.5-1.1-5.7-1.7-9.7-1.7c-4,0-7.7,0.9-11,2.7c-3.3,1.8-5.5,4.7-6.8,8.6
		l-16.5-5.2c2-7.1,5.9-12.7,11.7-16.7c5.7-4,13.2-6,22.5-6c7.5,0,14,1.2,19.4,3.7c5.3,2.5,9.3,6.3,11.9,11.4
		c1.3,2.6,2.2,5.3,2.5,8.1c0.3,2.8,0.5,6.2,0.5,10.4v49.7h-15.8v-17.5l2.6,2.8c-2.5,4-5.2,7.2-8.1,9.6s-6.3,4.3-10,5.5
		C242.3,2597.3,238,2597.9,233.1,2597.9z M236.7,2583.5c3.8,0,7.2-0.7,10.2-2.1c2.9-1.4,5.3-3.1,7-5.1c1.8-2,3-4.1,3.7-6.2
		c0.8-1.8,1.2-3.8,1.5-6.2c0.2-2.3,0.3-4.8,0.3-7.5v-1.5l5.5,1.7l-6.5,1.1c-6.8,1-12,1.9-15.6,2.6c-3.7,0.7-6.8,1.5-9.4,2.3
		c-3.3,1.2-5.7,2.6-7.4,4.3c-1.6,1.7-2.5,3.8-2.5,6.3c0,2,0.5,3.8,1.5,5.3c1,1.6,2.5,2.8,4.4,3.6S233.9,2583.5,236.7,2583.5z"/>
	<path class="st3" d="M287.9,2514.7h56.5v14.2h-56.5V2514.7z M344.4,2595.7c-8.9,1.7-16.8,1.8-23.8,0.4c-7-1.5-12-4.9-14.9-10.4
		c-1.5-2.7-2.4-5.5-2.7-8.4c-0.4-2.8-0.5-6.6-0.4-11.2v-3.5v-70.4h18v69.4v2.3c-0.1,3.2,0,5.8,0.2,7.6c0.2,1.8,0.7,3.4,1.5,4.6
		c1.7,2.8,4.4,4.4,8,4.9c3.6,0.5,8.3,0.4,14.1-0.5V2595.7z"/>
	<path class="st3" d="M382.8,2514.7h56.5v14.2h-56.5V2514.7z M439.3,2595.7c-8.9,1.7-16.8,1.8-23.8,0.4c-7-1.5-12-4.9-14.9-10.4
		c-1.5-2.7-2.4-5.5-2.7-8.4c-0.4-2.8-0.5-6.6-0.4-11.2v-3.5v-70.4h18v69.4v2.3c-0.1,3.2,0,5.8,0.2,7.6c0.2,1.8,0.7,3.4,1.5,4.6
		c1.7,2.8,4.4,4.4,8,4.9c3.6,0.5,8.3,0.4,14.1-0.5V2595.7z"/>
	<path class="st3" d="M456.6,2487.7h16.1v56.9h2.2v51.1h-18.3V2487.7z M512.8,2556.7c0-4.7-0.4-9-1.3-12.8
		c-0.9-3.8-2.7-7.2-5.5-10.1c-2.8-2.9-6.9-4.4-12.1-4.4c-3.5,0-6.6,0.7-9.4,2.2s-5.1,4-6.9,7.7c-1.8,3.7-2.7,8.6-2.7,14.8l-10.7-4.6
		c0-7,1.4-13.3,4.1-18.9c2.7-5.6,6.7-10,12-13.3c5.3-3.3,11.6-4.9,19-4.9c9,0,15.9,2.3,20.7,6.9c4.7,4.6,7.8,9.6,9.2,15
		c1.4,5.5,2.1,10.8,2.1,16.2v45.2h-18.3V2556.7z"/>
	<path class="st3" d="M587.4,2597.9c-8.1,0-15.3-1.8-21.5-5.3c-6.3-3.5-11.1-8.5-14.6-14.8c-3.5-6.4-5.2-13.6-5.2-21.7
		c0-8.7,1.7-16.4,5.1-23c3.4-6.6,8.1-11.7,14.2-15.3c6.1-3.6,13.1-5.4,21-5.4c8.3,0,15.4,2,21.3,5.9c5.9,3.9,10.3,9.4,13.1,16.6
		c2.8,7.2,3.9,15.6,3.3,25.3h-17.9v-6.6c-0.1-5.9-0.8-10.7-2.1-14.4c-1.4-3.7-3.4-6.4-6.2-8.2c-2.8-1.8-6.4-2.7-10.8-2.7
		c-4.9,0-9,1-12.2,3c-3.3,2-5.7,5-7.3,9c-1.6,4-2.4,9-2.4,14.9c0,5.5,0.8,10.2,2.4,14c1.6,3.9,4,6.8,7.2,8.8c3.2,2,7,3,11.6,3
		c4.4,0,8.2-1,11.5-3c3.2-2,5.7-4.8,7.5-8.6l17.9,5.4c-2,4.8-4.8,8.9-8.4,12.4c-3.6,3.5-7.8,6.1-12.5,8
		C597.6,2597,592.6,2597.9,587.4,2597.9z M559.5,2546.6h55.7v13.6h-55.7V2546.6z"/>
	<path class="st3" d="M670.8,2514.7h16v25.1h2.2v55.9h-18.2V2514.7z M719.6,2546.7c0-3.7-0.6-6.9-1.9-9.6c-1.2-2.7-3-4.8-5.3-6.2
		c-2.3-1.4-5-2.1-8.2-2.1c-3,0-5.7,0.7-7.9,2.1c-2.3,1.4-4.1,3.4-5.4,6c-1.3,2.6-1.9,5.5-1.9,8.9l-8.1-5.4c0-5.2,1.3-9.9,3.9-14.1
		c2.6-4.2,6.1-7.5,10.6-10c4.5-2.4,9.4-3.6,14.9-3.6c5.9,0,10.9,1.3,15,3.8c4.1,2.5,7.2,6,9.3,10.4c2,4.4,3.1,9.5,3.1,15.1v53.7h-18
		V2546.7z M768.2,2546.5c0-3.6-0.6-6.8-1.9-9.5c-1.3-2.7-3-4.7-5.3-6.1c-2.3-1.4-5-2.1-8.1-2.1c-2.9,0-5.5,0.7-7.8,2
		c-2.3,1.4-4.2,3.3-5.5,5.9c-1.3,2.6-2,5.6-2,9.1l-8-4.7c-0.1-5.5,1.2-10.4,3.8-14.7c2.6-4.3,6-7.7,10.5-10.1
		c4.4-2.4,9.3-3.6,14.7-3.6c5.9,0,10.9,1.2,15,3.6c4.2,2.4,7.3,5.8,9.5,10.2c2.1,4.4,3.2,9.6,3.2,15.4v53.8h-18.1V2546.5z"/>
	<path class="st3" d="M828.4,2597.9c-5.7,0-10.5-1.1-14.6-3.3c-4.1-2.2-7.2-5.1-9.3-8.8c-2.1-3.7-3.2-7.8-3.2-12.3
		c0-6,1.5-11,4.5-15c3-4,7.6-7.1,14-9.2c3.6-1.2,8-2.3,13-3.2s12.2-2,21.4-3.3c1.2-0.2,2.4-0.4,3.7-0.6c1.3-0.2,2.5-0.4,3.6-0.6
		l-6.5,3.7c0-3.8-0.6-6.9-1.6-9.3c-1.1-2.4-2.9-4.2-5.3-5.3c-2.5-1.1-5.7-1.7-9.7-1.7c-4,0-7.7,0.9-11,2.7c-3.3,1.8-5.5,4.7-6.8,8.6
		l-16.5-5.2c2-7.1,5.9-12.7,11.7-16.7c5.7-4,13.2-6,22.5-6c7.5,0,14,1.2,19.4,3.7c5.3,2.5,9.3,6.3,11.9,11.4
		c1.3,2.6,2.2,5.3,2.5,8.1c0.3,2.8,0.5,6.2,0.5,10.4v49.7h-15.8v-17.5l2.6,2.8c-2.5,4-5.2,7.2-8.1,9.6s-6.3,4.3-10,5.5
		C837.6,2597.3,833.3,2597.9,828.4,2597.9z M832,2583.5c3.8,0,7.2-0.7,10.2-2.1c2.9-1.4,5.3-3.1,7-5.1c1.8-2,3-4.1,3.7-6.2
		c0.8-1.8,1.2-3.8,1.5-6.2c0.2-2.3,0.3-4.8,0.3-7.5v-1.5l5.5,1.7l-6.5,1.1c-6.8,1-12,1.9-15.6,2.6c-3.7,0.7-6.8,1.5-9.4,2.3
		c-3.3,1.2-5.7,2.6-7.4,4.3c-1.6,1.7-2.5,3.8-2.5,6.3c0,2,0.5,3.8,1.5,5.3c1,1.6,2.5,2.8,4.4,3.6S829.2,2583.5,832,2583.5z"/>
	<path class="st3" d="M923.4,2597.9c-6.6,0-12.4-1-17.5-3c-5.1-2-9.1-4.9-12.3-8.8c-3.1-3.8-5.1-8.5-6-13.9l18.5-2.8
		c0.6,2.7,1.7,5,3.4,6.9c1.7,1.9,3.8,3.4,6.4,4.4c2.6,1,5.5,1.5,8.8,1.5c2.9,0,5.3-0.4,7.4-1.2c2-0.8,3.6-1.9,4.7-3.3
		c1.1-1.4,1.6-3.2,1.6-5.2c0-1.9-0.5-3.5-1.4-4.5c-0.9-1.1-2.7-2.1-5.5-3.1c-2.8-1-7.4-2.3-13.8-4c-6.9-1.8-12.3-3.7-16.3-5.8
		c-4-2.1-6.8-4.5-8.5-7.3c-1.8-2.8-2.6-6.3-2.6-10.4c0-5,1.3-9.4,3.9-13.2c2.6-3.8,6.3-6.7,11.1-8.7c4.8-2,10.4-3,16.8-3
		c6.2,0,11.8,1,16.7,2.9c4.9,2,8.9,4.7,11.9,8.4s4.8,7.8,5.5,12.6l-18.5,3.3c-0.4-2.3-1.2-4.3-2.5-6c-1.3-1.7-3-3-5.2-3.9
		c-2.2-0.9-4.7-1.5-7.7-1.7c-2.8-0.2-5.3,0.1-7.4,0.8c-2.2,0.7-3.8,1.6-5,2.9c-1.2,1.3-1.8,2.8-1.8,4.6c0,1.6,0.5,2.9,1.6,4
		c1.1,1.1,3.1,2.2,6.1,3.2c3,1.1,7.8,2.4,14.4,4.1c6.5,1.7,11.7,3.5,15.6,5.7c3.8,2.1,6.6,4.7,8.3,7.6c1.7,2.9,2.6,6.5,2.6,10.8
		c0,5.4-1.3,10.1-4,14c-2.7,3.9-6.5,6.9-11.5,9C936.3,2596.9,930.3,2597.9,923.4,2597.9z"/>
	<path class="st3" d="M964.4,2514.7h56.5v14.2h-56.5V2514.7z M1020.9,2595.7c-8.9,1.7-16.8,1.8-23.8,0.4c-7-1.5-12-4.9-14.9-10.4
		c-1.5-2.7-2.4-5.5-2.7-8.4c-0.4-2.8-0.5-6.6-0.4-11.2v-3.5v-70.4h18v69.4v2.3c-0.1,3.2,0,5.8,0.2,7.6c0.2,1.8,0.7,3.4,1.5,4.6
		c1.7,2.8,4.4,4.4,8,4.9c3.6,0.5,8.3,0.4,14.1-0.5V2595.7z"/>
	<path class="st3" d="M1071,2597.9c-8.1,0-15.3-1.8-21.5-5.3c-6.3-3.5-11.1-8.5-14.6-14.8c-3.5-6.4-5.2-13.6-5.2-21.7
		c0-8.7,1.7-16.4,5.1-23c3.4-6.6,8.1-11.7,14.2-15.3c6.1-3.6,13.1-5.4,21-5.4c8.3,0,15.4,2,21.3,5.9c5.9,3.9,10.3,9.4,13.1,16.6
		c2.8,7.2,3.9,15.6,3.3,25.3h-17.9v-6.6c-0.1-5.9-0.8-10.7-2.1-14.4c-1.4-3.7-3.4-6.4-6.2-8.2c-2.8-1.8-6.4-2.7-10.8-2.7
		c-4.9,0-9,1-12.2,3c-3.3,2-5.7,5-7.3,9c-1.6,4-2.4,9-2.4,14.9c0,5.5,0.8,10.2,2.4,14c1.6,3.9,4,6.8,7.2,8.8c3.2,2,7,3,11.6,3
		c4.4,0,8.2-1,11.5-3c3.2-2,5.7-4.8,7.5-8.6l17.9,5.4c-2,4.8-4.8,8.9-8.4,12.4c-3.6,3.5-7.8,6.1-12.5,8
		C1081.2,2597,1076.2,2597.9,1071,2597.9z M1043.1,2546.6h55.7v13.6h-55.7V2546.6z"/>
	<path class="st3" d="M1124.5,2514.7h16v19.7l-2-2.6c1.1-2.7,2.4-5.2,4.1-7.5c1.7-2.2,3.7-4,5.9-5.4c1.9-1.3,4.1-2.4,6.5-3.2
		c2.4-0.8,4.9-1.2,7.5-1.4c2.6-0.2,5.1-0.1,7.5,0.3v16.9c-2.6-0.8-5.4-1-8.4-0.6c-3.1,0.3-5.8,1.2-8.3,2.6c-2.5,1.3-4.5,3-6.1,5.1
		c-1.6,2.1-2.8,4.4-3.5,7c-0.8,2.6-1.1,5.6-1.1,8.9v41.2h-18.1V2514.7z"/>
	<path class="st3" d="M1215.9,2485.8h18.1v16.6h-18.1V2485.8z M1215.9,2514.7h18.1v81h-18.1V2514.7z"/>
	<path class="st3" d="M1256.3,2514.7h16.1v25.1h2.2v55.9h-18.3V2514.7z M1312.5,2556.7c0-4.7-0.4-9-1.3-12.8
		c-0.9-3.8-2.7-7.2-5.5-10.1c-2.8-2.9-6.9-4.4-12.2-4.4c-3.5,0-6.6,0.7-9.4,2.2s-5.1,4-6.9,7.7c-1.8,3.7-2.7,8.6-2.7,14.8l-10.7-4.6
		c0-7,1.4-13.3,4.1-18.9c2.7-5.6,6.7-10,12-13.3c5.3-3.3,11.6-4.9,19-4.9c9,0,15.9,2.3,20.7,6.9c4.7,4.6,7.8,9.6,9.2,15
		c1.4,5.5,2.1,10.8,2.1,16.2v45.2h-18.3V2556.7z"/>
	<path class="st3" d="M1381.5,2597.9c-6.6,0-12.4-1-17.5-3c-5.1-2-9.1-4.9-12.3-8.8s-5.1-8.5-6-13.9l18.5-2.8c0.6,2.7,1.7,5,3.4,6.9
		c1.7,1.9,3.8,3.4,6.4,4.4s5.5,1.5,8.8,1.5c2.9,0,5.3-0.4,7.4-1.2c2-0.8,3.6-1.9,4.7-3.3c1.1-1.4,1.6-3.2,1.6-5.2
		c0-1.9-0.5-3.5-1.4-4.5c-0.9-1.1-2.7-2.1-5.5-3.1c-2.8-1-7.3-2.3-13.8-4c-6.9-1.8-12.3-3.7-16.3-5.8c-4-2.1-6.8-4.5-8.5-7.3
		c-1.8-2.8-2.6-6.3-2.6-10.4c0-5,1.3-9.4,3.9-13.2c2.6-3.8,6.3-6.7,11.1-8.7c4.8-2,10.4-3,16.8-3c6.2,0,11.8,1,16.7,2.9
		c4.9,2,8.9,4.7,11.9,8.4s4.8,7.8,5.5,12.6l-18.5,3.3c-0.4-2.3-1.2-4.3-2.5-6c-1.3-1.7-3-3-5.2-3.9c-2.2-0.9-4.7-1.5-7.7-1.7
		c-2.8-0.2-5.3,0.1-7.4,0.8c-2.2,0.7-3.8,1.6-5,2.9c-1.2,1.3-1.8,2.8-1.8,4.6c0,1.6,0.5,2.9,1.6,4c1.1,1.1,3.1,2.2,6.1,3.2
		c3,1.1,7.8,2.4,14.4,4.1c6.5,1.7,11.7,3.5,15.6,5.7c3.8,2.1,6.6,4.7,8.3,7.6c1.7,2.9,2.6,6.5,2.6,10.8c0,5.4-1.3,10.1-4,14
		c-2.7,3.9-6.5,6.9-11.6,9C1394.4,2596.9,1388.4,2597.9,1381.5,2597.9z"/>
	<path class="st3" d="M1422.5,2514.7h56.5v14.2h-56.5V2514.7z M1479,2595.7c-8.8,1.7-16.8,1.8-23.8,0.4c-7-1.5-12-4.9-14.9-10.4
		c-1.5-2.7-2.4-5.5-2.7-8.4c-0.4-2.8-0.5-6.6-0.4-11.2v-3.5v-70.4h18v69.4v2.3c-0.1,3.2,0,5.8,0.2,7.6c0.2,1.8,0.7,3.4,1.5,4.6
		c1.7,2.8,4.4,4.4,8,4.9c3.6,0.5,8.3,0.4,14.1-0.5V2595.7z"/>
	<path class="st3" d="M1497.9,2485.8h18.1v16.6h-18.1V2485.8z M1497.9,2514.7h18.1v81h-18.1V2514.7z"/>
	<path class="st3" d="M1529.5,2514.7h56.5v14.2h-56.5V2514.7z M1586,2595.7c-8.8,1.7-16.8,1.8-23.8,0.4c-7-1.5-12-4.9-14.9-10.4
		c-1.5-2.7-2.4-5.5-2.7-8.4c-0.4-2.8-0.5-6.6-0.4-11.2v-3.5v-70.4h18v69.4v2.3c-0.1,3.2,0,5.8,0.2,7.6c0.2,1.8,0.7,3.4,1.5,4.6
		c1.7,2.8,4.4,4.4,8,4.9c3.6,0.5,8.3,0.4,14.1-0.5V2595.7z"/>
	<path class="st3" d="M1633.8,2598c-9.1,0-15.9-2.3-20.7-6.9c-4.7-4.6-7.8-9.6-9.2-15c-1.4-5.4-2.1-10.8-2.1-16.2v-45.2h18.3v39
		c0,4.7,0.4,9,1.3,12.8c0.8,3.8,2.7,7.2,5.5,10.1c2.8,2.9,6.8,4.4,12.2,4.4c3.5,0,6.6-0.7,9.4-2.2c2.8-1.5,5.1-4,6.9-7.7
		c1.8-3.6,2.7-8.6,2.7-14.8l10.7,4.6c0,7-1.4,13.3-4.1,18.9c-2.7,5.6-6.7,10-12,13.3C1647.6,2596.4,1641.2,2598,1633.8,2598z
		 M1660.3,2570.6h-2.2v-55.9h18.2v81h-16V2570.6z"/>
	<path class="st3" d="M1688.3,2514.7h56.5v14.2h-56.5V2514.7z M1744.8,2595.7c-8.8,1.7-16.8,1.8-23.8,0.4c-7-1.5-12-4.9-14.9-10.4
		c-1.5-2.7-2.4-5.5-2.7-8.4c-0.4-2.8-0.5-6.6-0.4-11.2v-3.5v-70.4h18v69.4v2.3c-0.1,3.2,0,5.8,0.2,7.6c0.2,1.8,0.7,3.4,1.5,4.6
		c1.7,2.8,4.4,4.4,8,4.9c3.6,0.5,8.3,0.4,14.1-0.5V2595.7z"/>
	<path class="st3" d="M1794.9,2597.9c-8.1,0-15.3-1.8-21.5-5.3c-6.3-3.5-11.1-8.5-14.6-14.8c-3.5-6.4-5.2-13.6-5.2-21.7
		c0-8.7,1.7-16.4,5.1-23s8.1-11.7,14.2-15.3c6.1-3.6,13.1-5.4,21-5.4c8.3,0,15.4,2,21.3,5.9c5.9,3.9,10.3,9.4,13.1,16.6
		c2.8,7.2,3.9,15.6,3.3,25.3h-17.9v-6.6c-0.1-5.9-0.8-10.7-2.1-14.4c-1.3-3.7-3.4-6.4-6.2-8.2c-2.8-1.8-6.4-2.7-10.8-2.7
		c-4.9,0-9,1-12.2,3c-3.3,2-5.7,5-7.3,9c-1.6,4-2.4,9-2.4,14.9c0,5.5,0.8,10.2,2.4,14c1.6,3.9,4,6.8,7.2,8.8c3.2,2,7,3,11.6,3
		c4.4,0,8.2-1,11.5-3c3.2-2,5.7-4.8,7.5-8.6l17.8,5.4c-2,4.8-4.8,8.9-8.4,12.4c-3.6,3.5-7.8,6.1-12.5,8
		C1805.1,2597,1800.1,2597.9,1794.9,2597.9z M1767,2546.6h55.7v13.6H1767V2546.6z"/>
	<path class="st3" d="M246.3,2777.9c-8,0-15.1-1.8-21.1-5.4c-6.1-3.6-10.8-8.7-14.1-15.1c-3.3-6.5-5-13.9-5-22.2
		c0-8.4,1.7-15.8,5.1-22.3c3.4-6.5,8.1-11.5,14.2-15.1c6.1-3.6,13.1-5.4,21-5.4c8,0,15.1,1.8,21.2,5.4c6.1,3.6,10.8,8.7,14.2,15.1
		c3.3,6.5,5,13.9,5,22.2c0,8.4-1.7,15.8-5.1,22.2c-3.4,6.5-8.1,11.5-14.2,15.1C261.3,2776.1,254.3,2777.9,246.3,2777.9z M246.3,2761
		c4.6,0,8.6-1.1,11.8-3.2c3.2-2.1,5.6-5.2,7.2-9c1.6-3.9,2.4-8.4,2.4-13.5c0-8-1.8-14.4-5.5-18.9c-3.7-4.6-8.9-6.9-15.8-6.9
		c-4.8,0-8.7,1.1-11.9,3.2c-3.1,2.1-5.5,5.1-7,9c-1.5,3.8-2.3,8.4-2.3,13.6c0,5.3,0.8,9.9,2.4,13.8c1.6,3.9,4,6.9,7.1,8.9
		C237.8,2759.9,241.7,2761,246.3,2761z"/>
	<path class="st3" d="M297.2,2694.7h50.7v14.2h-50.7V2694.7z M310.2,2693.4v-1.2c0-2.8,0.2-5.3,0.4-7.3c0.2-2,0.7-4.2,1.4-6.4
		c0.8-2.2,1.9-4.2,3.5-5.9c2-2.1,4.1-3.8,6.5-4.8c2.3-1.1,4.6-1.7,6.8-2c2.2-0.2,4.6-0.3,7.4-0.3h1.6h10.1v14.7h-9.4
		c-3.4,0-6,0.8-7.7,2.5c-1.7,1.7-2.5,4-2.5,6.9v86.2h-18.1V2693.4z"/>
	<path class="st3" d="M382.4,2694.7h18.1l20.4,58.7l20.3-58.7h18.2l-29.4,81h-18.1L382.4,2694.7z"/>
	<path class="st3" d="M474.3,2665.8h18.1v16.6h-18.1V2665.8z M474.3,2694.7h18.1v81h-18.1V2694.7z"/>
	<path class="st3" d="M546.2,2777.9c-6.6,0-12.4-1-17.5-3c-5.1-2-9.1-4.9-12.3-8.8c-3.1-3.8-5.1-8.5-6-13.9l18.5-2.8
		c0.6,2.7,1.7,5,3.4,6.9c1.7,1.9,3.8,3.4,6.4,4.4c2.6,1,5.5,1.5,8.8,1.5c2.9,0,5.3-0.4,7.4-1.2c2-0.8,3.6-1.9,4.7-3.3
		c1.1-1.4,1.6-3.2,1.6-5.2c0-1.9-0.5-3.5-1.4-4.5c-0.9-1.1-2.7-2.1-5.5-3.1c-2.8-1-7.4-2.3-13.8-4c-6.9-1.8-12.3-3.7-16.3-5.8
		c-4-2.1-6.8-4.5-8.5-7.3c-1.8-2.8-2.6-6.3-2.6-10.4c0-5,1.3-9.4,3.9-13.2c2.6-3.8,6.3-6.7,11.1-8.7c4.8-2,10.4-3,16.8-3
		c6.2,0,11.8,1,16.7,2.9c4.9,2,8.9,4.7,11.9,8.4s4.8,7.8,5.5,12.6l-18.5,3.3c-0.4-2.3-1.2-4.3-2.5-6c-1.3-1.7-3-3-5.2-3.9
		c-2.2-0.9-4.7-1.5-7.7-1.7c-2.8-0.2-5.3,0.1-7.4,0.8c-2.2,0.7-3.8,1.6-5,2.9c-1.2,1.3-1.8,2.8-1.8,4.6c0,1.6,0.5,2.9,1.6,4
		c1.1,1.1,3.1,2.2,6.1,3.2c3,1.1,7.8,2.4,14.4,4.1c6.5,1.7,11.7,3.5,15.6,5.7c3.8,2.1,6.6,4.7,8.3,7.6c1.7,2.9,2.6,6.5,2.6,10.8
		c0,5.4-1.3,10.1-4,14c-2.7,3.9-6.5,6.9-11.5,9C559.1,2776.9,553.1,2777.9,546.2,2777.9z"/>
	<path class="st3" d="M626.5,2778c-9.1,0-15.9-2.3-20.7-6.9c-4.7-4.6-7.8-9.6-9.1-15c-1.4-5.4-2.1-10.8-2.1-16.2v-45.2h18.3v39
		c0,4.7,0.4,9,1.3,12.8c0.8,3.8,2.7,7.2,5.5,10.1c2.8,2.9,6.8,4.4,12.2,4.4c3.5,0,6.6-0.7,9.4-2.2c2.8-1.5,5.1-4,6.9-7.7
		c1.8-3.6,2.7-8.6,2.7-14.8l10.7,4.6c0,7-1.4,13.3-4,18.9c-2.7,5.6-6.7,10-12,13.3C640.3,2776.4,633.9,2778,626.5,2778z M653,2750.6
		h-2.2v-55.9H669v81h-16V2750.6z"/>
	<path class="st3" d="M712.6,2777.9c-5.7,0-10.5-1.1-14.6-3.3c-4.1-2.2-7.2-5.1-9.3-8.8c-2.1-3.7-3.2-7.8-3.2-12.3
		c0-6,1.5-11,4.5-15c3-4,7.6-7.1,14-9.2c3.6-1.2,8-2.3,13-3.2s12.2-2,21.4-3.3c1.2-0.2,2.4-0.4,3.7-0.6c1.3-0.2,2.5-0.4,3.6-0.6
		l-6.5,3.7c0-3.8-0.6-6.9-1.6-9.3c-1.1-2.4-2.9-4.2-5.3-5.3c-2.5-1.1-5.7-1.7-9.7-1.7c-4,0-7.7,0.9-11,2.7c-3.3,1.8-5.5,4.7-6.8,8.6
		l-16.5-5.2c2-7.1,5.9-12.7,11.7-16.7c5.7-4,13.2-6,22.5-6c7.5,0,14,1.2,19.4,3.7c5.3,2.5,9.3,6.3,11.9,11.4
		c1.3,2.6,2.2,5.3,2.5,8.1c0.3,2.8,0.5,6.2,0.5,10.4v49.7H741v-17.5l2.6,2.8c-2.5,4-5.2,7.2-8.1,9.6s-6.3,4.3-10,5.5
		C721.8,2777.3,717.5,2777.9,712.6,2777.9z M716.2,2763.5c3.8,0,7.2-0.7,10.2-2.1c2.9-1.4,5.3-3.1,7-5.1c1.8-2,3-4.1,3.7-6.2
		c0.8-1.8,1.2-3.8,1.5-6.2c0.2-2.3,0.3-4.8,0.3-7.5v-1.5l5.5,1.7l-6.5,1.1c-6.8,1-12,1.9-15.6,2.6c-3.7,0.7-6.8,1.5-9.4,2.3
		c-3.3,1.2-5.7,2.6-7.4,4.3c-1.6,1.7-2.5,3.8-2.5,6.3c0,2,0.5,3.8,1.5,5.3c1,1.6,2.5,2.8,4.4,3.6S713.4,2763.5,716.2,2763.5z"/>
	<path class="st3" d="M777.9,2665.4h18.1v110.2h-18.1V2665.4z"/>
	<path class="st3" d="M883.6,2777.9c-8.2,0-15.2-1.8-21.2-5.5c-6-3.7-10.5-8.7-13.7-15.2c-3.1-6.5-4.8-13.8-4.8-22
		c0-8.3,1.7-15.7,4.9-22.1s7.8-11.5,13.9-15.1c6-3.7,13.1-5.5,21.1-5.5c6.1,0,11.6,1,16.6,3.1c4.9,2.1,9.1,5.1,12.4,9
		c3.3,3.9,5.6,8.5,6.9,13.8l-18,4.9c-1.4-4.3-3.7-7.7-6.9-10.1c-3.2-2.4-6.9-3.7-11.1-3.7c-6.8,0-11.9,2.4-15.4,7
		c-3.4,4.7-5.2,11-5.2,18.8c0,5.2,0.8,9.7,2.3,13.6c1.5,3.9,3.9,6.9,7,9c3.1,2.1,6.8,3.2,11.2,3.2c4.7,0,8.4-1.1,11.2-3.2
		c2.8-2.1,5-5.3,6.4-9.6l18.5,4.1c-2.5,8.2-6.9,14.6-13.1,19C900.3,2775.7,892.7,2777.9,883.6,2777.9z"/>
	<path class="st3" d="M965.1,2778c-9.1,0-15.9-2.3-20.7-6.9c-4.7-4.6-7.8-9.6-9.1-15c-1.4-5.4-2.1-10.8-2.1-16.2v-45.2h18.3v39
		c0,4.7,0.4,9,1.3,12.8c0.8,3.8,2.7,7.2,5.5,10.1c2.8,2.9,6.8,4.4,12.2,4.4c3.5,0,6.6-0.7,9.4-2.2c2.8-1.5,5.1-4,6.9-7.7
		c1.8-3.6,2.7-8.6,2.7-14.8l10.7,4.6c0,7-1.4,13.3-4,18.9c-2.7,5.6-6.7,10-12,13.3C978.9,2776.4,972.5,2778,965.1,2778z
		 M991.6,2750.6h-2.2v-55.9h18.2v81h-16V2750.6z"/>
	<path class="st3" d="M1030.1,2665.4h18.1v110.2h-18.1V2665.4z"/>
	<path class="st3" d="M1061.7,2694.7h56.5v14.2h-56.5V2694.7z M1118.1,2775.7c-8.9,1.7-16.8,1.8-23.8,0.4c-7-1.5-12-4.9-14.9-10.4
		c-1.5-2.7-2.4-5.5-2.7-8.4c-0.4-2.8-0.5-6.6-0.4-11.2v-3.5v-70.4h18v69.4v2.3c-0.1,3.2,0,5.8,0.2,7.6c0.2,1.8,0.7,3.4,1.5,4.6
		c1.7,2.8,4.4,4.4,8,4.9c3.6,0.5,8.3,0.4,14.1-0.5V2775.7z"/>
	<path class="st3" d="M1166,2778c-9.1,0-15.9-2.3-20.7-6.9c-4.7-4.6-7.8-9.6-9.1-15c-1.4-5.4-2.1-10.8-2.1-16.2v-45.2h18.3v39
		c0,4.7,0.4,9,1.3,12.8c0.8,3.8,2.7,7.2,5.5,10.1c2.8,2.9,6.8,4.4,12.2,4.4c3.5,0,6.6-0.7,9.4-2.2c2.8-1.5,5.1-4,6.9-7.7
		c1.8-3.6,2.7-8.6,2.7-14.8l10.7,4.6c0,7-1.4,13.3-4,18.9c-2.7,5.6-6.7,10-12,13.3C1179.7,2776.4,1173.4,2778,1166,2778z
		 M1192.5,2750.6h-2.2v-55.9h18.2v81h-16V2750.6z"/>
	<path class="st3" d="M1229.4,2694.7h16v19.7l-2-2.6c1.1-2.7,2.4-5.2,4.1-7.5c1.7-2.2,3.7-4,5.9-5.4c1.9-1.3,4.1-2.4,6.5-3.2
		c2.4-0.8,4.9-1.2,7.5-1.4c2.6-0.2,5.1-0.1,7.5,0.3v16.9c-2.6-0.8-5.4-1-8.4-0.6c-3.1,0.3-5.8,1.2-8.3,2.6c-2.5,1.3-4.5,3-6.1,5.1
		c-1.6,2.1-2.8,4.4-3.5,7c-0.8,2.6-1.1,5.6-1.1,8.9v41.2h-18.1V2694.7z"/>
	<path class="st3" d="M1324.6,2777.9c-8.1,0-15.3-1.8-21.5-5.3c-6.3-3.5-11.1-8.5-14.6-14.8c-3.5-6.4-5.2-13.6-5.2-21.7
		c0-8.7,1.7-16.4,5.1-23c3.4-6.6,8.1-11.7,14.2-15.3c6.1-3.6,13.1-5.4,21-5.4c8.3,0,15.4,2,21.3,5.9c5.9,3.9,10.3,9.4,13.1,16.6
		c2.8,7.2,3.9,15.6,3.3,25.3h-17.9v-6.6c-0.1-5.9-0.8-10.7-2.1-14.4c-1.3-3.7-3.4-6.4-6.2-8.2c-2.8-1.8-6.4-2.7-10.8-2.7
		c-4.9,0-9,1-12.2,3c-3.3,2-5.7,5-7.3,9c-1.6,4-2.4,9-2.4,14.9c0,5.5,0.8,10.2,2.4,14c1.6,3.9,4,6.8,7.2,8.8c3.2,2,7,3,11.6,3
		c4.4,0,8.2-1,11.5-3c3.2-2,5.7-4.8,7.5-8.6l17.8,5.4c-2,4.8-4.8,8.9-8.4,12.4c-3.6,3.5-7.8,6.1-12.5,8
		C1334.8,2777,1329.8,2777.9,1324.6,2777.9z M1296.7,2726.6h55.7v13.6h-55.7V2726.6z"/>
	<path class="st3" d="M1409.4,2777.9c-6.6,0-12.4-1-17.5-3c-5.1-2-9.1-4.9-12.3-8.8s-5.1-8.5-6-13.9l18.5-2.8c0.6,2.7,1.7,5,3.4,6.9
		c1.7,1.9,3.8,3.4,6.4,4.4s5.5,1.5,8.8,1.5c2.9,0,5.3-0.4,7.4-1.2c2-0.8,3.6-1.9,4.7-3.3c1.1-1.4,1.6-3.2,1.6-5.2
		c0-1.9-0.5-3.5-1.4-4.5c-0.9-1.1-2.7-2.1-5.5-3.1c-2.8-1-7.3-2.3-13.8-4c-6.9-1.8-12.3-3.7-16.3-5.8c-4-2.1-6.8-4.5-8.5-7.3
		c-1.8-2.8-2.6-6.3-2.6-10.4c0-5,1.3-9.4,3.9-13.2c2.6-3.8,6.3-6.7,11.1-8.7c4.8-2,10.4-3,16.8-3c6.2,0,11.8,1,16.7,2.9
		c4.9,2,8.9,4.7,11.9,8.4s4.8,7.8,5.5,12.6l-18.5,3.3c-0.4-2.3-1.2-4.3-2.5-6c-1.3-1.7-3-3-5.2-3.9c-2.2-0.9-4.7-1.5-7.7-1.7
		c-2.8-0.2-5.3,0.1-7.4,0.8c-2.2,0.7-3.8,1.6-5,2.9c-1.2,1.3-1.8,2.8-1.8,4.6c0,1.6,0.5,2.9,1.6,4c1.1,1.1,3.1,2.2,6.1,3.2
		c3,1.1,7.8,2.4,14.4,4.1c6.5,1.7,11.7,3.5,15.6,5.7c3.8,2.1,6.6,4.7,8.3,7.6c1.7,2.9,2.6,6.5,2.6,10.8c0,5.4-1.3,10.1-4,14
		c-2.7,3.9-6.5,6.9-11.6,9C1422.2,2776.9,1416.3,2777.9,1409.4,2777.9z"/>
</g>
<g>
	<g>
	</g>
</g>
</svg>
